<?xml version="1.0" encoding="utf-8"?>
<!-- Generator: Adobe Illustrator 18.1.1, SVG Export Plug-In . SVG Version: 6.00 Build 0)  -->
<!DOCTYPE svg PUBLIC "-//W3C//DTD SVG 1.1//EN" "http://www.w3.org/Graphics/SVG/1.1/DTD/svg11.dtd">
<svg version="1.1" id="Layer_1" xmlns="http://www.w3.org/2000/svg" xmlns:xlink="http://www.w3.org/1999/xlink" x="0px" y="0px"
	 viewBox="0 0 558.2 109.9" style="enable-background:new 0 0 558.2 109.9;" xml:space="preserve">
<rect x="-18.3" y="-18.5" style="display:none;" width="594.5" height="146"/>
<path style="fill:#FFFFFF;" d="M153.8,58h-39.1c-0.4,6.7,1.1,12.4,4.4,17.2c3.7,5.3,8.8,7.9,15.2,7.9c5.9,0,11.4-3.1,16.6-9.4
	l3.8,2.9c-5.9,7.9-13.4,11.9-22.7,11.9c-8.4,0-15.4-2.8-20.8-8.3c-5.5-5.5-8.2-12.5-8.2-20.9c0-8.1,2.5-14.8,7.5-20.1
	c5-5.3,11.5-8,19.6-8c7.5,0,13.4,2.6,17.6,7.7C152.1,44.1,154,50.4,153.8,58 M115.1,52.6h26.8c0.3-4.6-0.5-8.4-2.4-11.4
	c-2.2-3.5-5.5-5.3-9.9-5.3c-4.4,0-7.9,1.7-10.5,5.2C116.8,44,115.5,47.9,115.1,52.6"/>
<path style="fill:#FFFFFF;" d="M182.8,74.4l9.4-22c2.5-5.9,3.7-9.6,3.7-11.1c0-1.6-1.1-2.7-3.2-3.3c-2.1-0.6-3.2-1.7-3.2-3.1v-2
	h21.5v2c0,1.4-0.4,2.1-1.2,2.3c-1.7,0.5-2.7,0.8-3.2,1.1c-1.7,1.1-3.2,3.4-4.7,6.9l-18.5,42.5h-6.2L157.8,44c-1.4-3-2.8-5-4.3-6
	c-0.2-0.1-1.2-0.4-2.8-0.8c-0.8-0.1-1.1-0.9-1.1-2.4v-2h26.1v2c0,1.4-1.1,2.4-3.2,3c-2.1,0.6-3.2,1.5-3.2,2.8c0,0.6,0.5,2.1,1.5,4.4
	L182.8,74.4z"/>
<path style="fill:#FFFFFF;" d="M256.6,58h-39.1c-0.4,6.7,1.1,12.4,4.4,17.2c3.7,5.3,8.8,7.9,15.2,7.9c5.9,0,11.4-3.1,16.6-9.4
	l3.8,2.9c-5.9,7.9-13.4,11.9-22.7,11.9c-8.4,0-15.4-2.8-20.8-8.3c-5.5-5.5-8.2-12.5-8.2-20.9c0-8.1,2.5-14.8,7.5-20.1
	c5-5.3,11.5-8,19.6-8c7.5,0,13.4,2.6,17.6,7.7C254.8,44.1,256.8,50.4,256.6,58 M217.8,52.6h26.8c0.3-4.6-0.5-8.4-2.4-11.4
	c-2.2-3.5-5.5-5.3-9.9-5.3c-4.4,0-7.9,1.7-10.5,5.2C219.5,44,218.2,47.9,217.8,52.6"/>
<path style="fill:#FFFFFF;" d="M275.1,32.4v17.1c1.1-4.4,2.8-8.4,5.2-11.7c3.1-4.4,6.6-6.6,10.4-6.6c2.1,0,3.9,0.6,5.3,1.7
	c1.4,1.1,2.1,2.7,2.1,4.7c0,1.7-0.7,3-2,4.1c-1.3,1.1-2.8,1.6-4.6,1.6c-1.1,0-2.3-0.3-3.6-0.8c-1.3-0.5-2.1-0.8-2.4-0.8
	c-2.7,0-5.2,3.2-7.4,9.6c-2.1,5.7-3.1,10.8-3.1,15.4v10.5c0,2.5,0.6,4,1.8,4.6c1,0.1,2.1,0.2,3.3,0.3c1.1,0.2,1.7,1,1.7,2.6v2h-24.2
	v-2c0-1.5,0.5-2.4,1.6-2.5c1.1-0.2,2.2-0.4,3.2-0.5c1.1-0.6,1.7-2.1,1.7-4.5V42.5c0-2.4-0.6-3.9-1.7-4.5c-1.1-0.2-2.1-0.3-3.2-0.5
	c-1.1-0.2-1.6-1-1.6-2.5v-2L275.1,32.4z"/>
<path style="fill:#FFFFFF;" d="M316.5,84v16.3c0,2.4,0.6,3.9,1.7,4.5c1.1,0.1,2.1,0.3,3.3,0.6c1.1,0.2,1.7,1.1,1.7,2.5v2h-23.6v-2
	c0-1.4,0.5-2.2,1.5-2.4c1-0.3,2-0.5,3-0.7c1.1-0.7,1.6-2.1,1.6-4.4V42.5c0-2.8-0.9-4.4-2.8-4.9c-1.8-0.5-2.8-1.3-2.8-2.5v-2.3
	l15.8-0.5v5.3c5.3-4.4,10.8-6.6,16.5-6.6c7.8,0,14,2.7,18.9,8.2c4.6,5.3,6.9,12,6.9,20.1c0,8.2-2.3,15-7,20.4
	c-5,5.9-11.5,8.7-19.5,8.6C326.3,88.5,321.2,87,316.5,84 M316.5,40.8v38.2c3.4,3,7.4,4.5,12,4.5c6.2,0,10.7-2.6,13.7-7.9
	c2.3-4.2,3.5-9.7,3.5-16.4c0-6.5-1.2-11.7-3.6-15.7c-3-4.8-7.5-7.2-13.6-7.2C323.9,36.2,319.9,37.8,316.5,40.8"/>
<path style="fill:#FFFFFF;" d="M378.5,0v77.2c0,2.3,0.5,3.7,1.5,4.4c0.9,0.2,1.8,0.5,2.8,0.7c1,0.3,1.5,1.1,1.5,2.4v2h-22.6v-2
	c0-1.4,0.5-2.2,1.5-2.4c1-0.3,2-0.5,2.9-0.7c1.1-0.7,1.6-2.1,1.6-4.4V10c0-2.3-0.5-3.7-1.6-4.4c-0.9-0.2-1.9-0.5-2.9-0.7
	c-1-0.3-1.5-1.1-1.5-2.4v-2L378.5,0z"/>
<path style="fill:#FFFFFF;" d="M419.8,52.7c0-11.6-3.7-17.4-11.2-17.4c-2.9,0-4.4,1.6-4.7,4.9c-0.4,4.1-2.6,6.1-6.5,6.1
	c-1.7,0-3-0.5-4.2-1.5c-1.1-1-1.7-2.4-1.7-4c0-3.1,2.2-5.6,6.5-7.5c3.5-1.4,7-2.1,10.5-2.1c9.5,0,16,3.2,19.6,9.5
	c1.9,3.4,2.8,7.4,2.8,12v17.6c0,8.1,1.7,12.2,5,12.2c0.9,0,1.9-0.5,3-1.5l0.5,0.7c0.6,0.9,0.9,1.5,0.9,1.7c0,1.1-1,2.3-2.9,3.4
	c-1.9,1.2-3.9,1.8-5.8,1.8c-5,0-8.5-2.6-10.4-7.9c-4.9,5.3-10.3,7.9-16.3,7.9c-5,0-9.4-1.4-13-4.1c-3.9-2.9-5.9-6.8-5.9-11.7
	C386.1,61.7,397.3,55,419.8,52.7 M420.1,67.8V56.9c-5.8,0.5-10.6,1.9-14.5,4.1c-5,2.9-7.6,6.9-7.6,12c0,3,0.8,5.5,2.4,7.3
	c1.6,1.9,3.9,2.8,6.8,2.8c2.9,0,5.6-1,7.9-2.9C418.5,77.5,420.1,73.3,420.1,67.8"/>
<path style="fill:#FFFFFF;" d="M443.8,35.1v-2.3l15.7-0.5v5.6c5-4.6,10.9-6.9,17.5-6.9c12,0,18,5.1,18,15.2v30.8
	c0,2.3,0.5,3.7,1.6,4.4c0.9,0.2,1.9,0.5,2.9,0.7c1,0.3,1.5,1.1,1.5,2.4v2H478v-2c0-1.4,0.5-2.2,1.5-2.4c1-0.3,2-0.5,3-0.7
	c1.1-0.7,1.6-2.1,1.6-4.4V49.6c0-4.3-0.6-7.3-1.7-9.1c-1.7-2.6-4.9-3.8-9.6-3.8c-2.2,0-4.6,0.6-7.1,1.9c-2.6,1.3-4.4,2.9-5.5,4.7v34
	c0,2.3,0.5,3.7,1.6,4.4c1,0.2,2,0.5,3,0.7c1,0.3,1.5,1.1,1.5,2.4v2h-22.5v-2c0-1.4,0.9-2.3,2.8-2.7c1.8-0.5,2.8-2.1,2.8-4.9V42.5
	c0-2.2-0.5-3.6-1.5-4.3c-0.1-0.1-0.9-0.3-2.6-0.8C444.3,37.1,443.8,36.3,443.8,35.1"/>
<path style="fill:#FFFFFF;" d="M521.9,88.5c-4.4,0-8.7-0.8-12.7-2.3c-5.5-2-8.2-4.9-8.2-8.6c0-1.7,0.7-3.2,2-4.3
	c1.3-1.1,2.9-1.7,4.6-1.7c1.6,0,3.1,0.5,4.5,1.4c1.4,0.9,2.1,2.2,2.1,3.7c0,0.3-0.1,0.8-0.2,1.5c-0.2,0.7-0.2,1.2-0.2,1.5
	c0,2.7,2.6,4.1,7.9,4.1c3.2,0,6-0.7,8.4-2.1c2.8-1.7,4.3-4.1,4.3-7c0-3.8-2.7-6.8-8-9c-4.9-1.9-9.8-3.8-14.8-5.6
	c-5.3-2.8-8-6.9-8-12.3c0-5.1,2.5-9.3,7.6-12.4c4.4-2.7,9.3-4.1,14.8-4.1c3.8,0,7.3,0.6,10.4,1.9c4.1,1.7,6.2,4.3,6.2,7.6
	c0,1.7-0.6,3.1-1.9,4.1c-1.3,1-2.8,1.5-4.5,1.5c-1.6,0-3-0.4-4.2-1.2c-1.4-0.9-2.1-2.1-2.1-3.7c0-0.3,0-0.7,0.1-1.2
	c0.1-0.5,0.1-0.9,0.1-1.1c0-2-2-2.9-5.9-2.9c-2.5,0-4.7,0.7-6.8,2c-2.3,1.6-3.5,3.5-3.5,5.9c0,3.6,2.7,6.5,8.1,8.6
	c5,1.9,10.1,3.8,15.1,5.6c5.4,2.9,8.1,7.2,8.1,12.6c0,5.6-2.6,10.1-7.7,13.4C533,87.1,527.8,88.5,521.9,88.5"/>
<path style="fill:#FFFFFF;" d="M82.7,59c0,22.9-18.5,41.4-41.4,41.4C18.5,100.4,0,81.8,0,59c0-22.8,18.5-41.4,41.4-41.4
	C64.2,17.6,82.7,36.1,82.7,59 M26.7,59c0-5-4-9.1-9-9.1c-5,0-9,4-9,9.1c0,5,4,9.1,9,9.1C22.7,68,26.7,64,26.7,59 M50.4,59
	c0-5-4-9.1-9-9.1c-5,0-9,4-9,9.1c0,5,4,9.1,9,9.1C46.4,68,50.4,64,50.4,59 M74.1,59c0-5-4-9.1-9-9.1c-5,0-9,4-9,9.1c0,5,4,9.1,9,9.1
	C70,68,74.1,64,74.1,59"/>
<text transform="matrix(1 0 0 1 541.667 32.4937)" style="fill:#FFFFFF; font-family:'Arial-BoldMT'; font-size:12;">TM</text>
</svg>
