<?xml version="1.0" encoding="utf-8"?>
<!-- Generator: Adobe Illustrator 21.0.2, SVG Export Plug-In . SVG Version: 6.00 Build 0)  -->
<svg version="1.1" id="Layer_1" xmlns="http://www.w3.org/2000/svg" xmlns:xlink="http://www.w3.org/1999/xlink" x="0px" y="0px"
	 viewBox="0 0 238 39.5" style="enable-background:new 0 0 238 39.5;" xml:space="preserve">
<style type="text/css">
	.st0{opacity:0.1;enable-background:new    ;}
	.st1{fill:#FFFFFF;}
</style>
<rect y="21.1" class="st0" width="238" height="18.4"/>
<g>
	<path class="st1" d="M0,8L0,8c0-4.3,3.1-8,7.8-8s7.8,3.7,7.8,8l0,0c0,4.2-3.1,8-7.8,8S0,12.3,0,8z M14.4,8L14.4,8
		c0-3.9-2.8-7-6.6-7S1.2,4.1,1.2,8l0,0c0,3.8,2.8,7,6.6,7S14.4,11.9,14.4,8z"/>
	<path class="st1" d="M19.2,9.3v-9h1.1v8.9c0,3.6,2,5.7,5.2,5.7c3.1,0,5.2-1.9,5.2-5.6v-9h1.1v8.9c0,4.4-2.6,6.8-6.3,6.8
		C21.9,16,19.2,13.6,19.2,9.3z"/>
	<path class="st1" d="M36.3,0.3h6.5c1.9,0,3.4,0.6,4.4,1.5c0.7,0.7,1.2,1.8,1.2,2.9l0,0c0,2.6-1.9,4.1-4.5,4.4l5.1,6.6h-1.5
		l-4.9-6.4h-5.1v6.4h-1.1V0.3H36.3z M42.6,8.3c2.6,0,4.5-1.3,4.5-3.5l0,0c0-2.1-1.6-3.4-4.4-3.4h-5.3v7L42.6,8.3L42.6,8.3z"/>
	<path class="st1" d="M58.9,0.3H60v14.4h9.1v1.1H58.9V0.3z"/>
	<path class="st1" d="M72.7,0.3h1.1v15.5h-1.1V0.3z"/>
	<path class="st1" d="M78.6,0.3h10.9v1.1h-9.7v6.3h8.8v1.1h-8.8v7h-1.1V0.3H78.6z"/>
	<path class="st1" d="M93.1,0.3h11v1.1h-9.9v6.1h8.9v1.1h-8.9v6.2h10v1.1H93.1V0.3z"/>
	<path class="st1" d="M113.5,8L113.5,8c0-4.4,3.3-8,8.1-8c2.9,0,4.7,1,6.1,2.4l-2.2,2.5c-1.2-1.1-2.4-1.7-4-1.7
		c-2.6,0-4.5,2.2-4.5,4.8l0,0c0,2.7,1.8,4.9,4.5,4.9c1.8,0,2.9-0.7,4.1-1.8l2.2,2.2c-1.6,1.7-3.4,2.8-6.3,2.8
		C116.8,16,113.5,12.5,113.5,8z"/>
	<path class="st1" d="M129.3,8L129.3,8c0-4.4,3.5-8,8.2-8c4.8,0,8.2,3.6,8.2,8l0,0c0,4.4-3.5,8-8.2,8S129.3,12.4,129.3,8z M142.2,8
		L142.2,8c0-2.7-1.9-4.9-4.7-4.9c-2.7,0-4.6,2.2-4.6,4.8l0,0c0,2.7,1.9,4.9,4.7,4.9C140.3,12.9,142.2,10.7,142.2,8z"/>
	<path class="st1" d="M146.5,0.3h3.8l4,10.9l4-10.9h3.7l-6.3,15.6h-3L146.5,0.3z"/>
	<path class="st1" d="M164.4,0.3h11.7v3h-8.3v3.1h7.3v3h-7.3v3.2h8.4v3h-11.8L164.4,0.3L164.4,0.3z"/>
	<path class="st1" d="M179.2,0.3h7.1c2,0,3.5,0.6,4.5,1.6c0.9,0.9,1.3,2.1,1.3,3.5l0,0c0,2.5-1.3,4.1-3.3,4.8l3.8,5.5h-4l-3.3-5
		h-2.7v5h-3.4L179.2,0.3L179.2,0.3z M186.1,7.8c1.7,0,2.6-0.9,2.6-2.2l0,0c0-1.5-1-2.2-2.7-2.2h-3.4v4.4H186.1z"/>
	<path class="st1" d="M195.2,0.3h11.7v3h-8.3v3.1h7.3v3h-7.3v3.2h8.4v3h-11.8L195.2,0.3L195.2,0.3z"/>
	<path class="st1" d="M210,0.3h6c4.9,0,8.2,3.3,8.2,7.7l0,0c0,4.4-3.4,7.7-8.2,7.7h-6V0.3z M216,12.7c2.8,0,4.7-1.9,4.7-4.6l0,0
		c0-2.7-1.9-4.7-4.7-4.7h-2.6v9.3C213.4,12.7,216,12.7,216,12.7z"/>
	<path class="st1" d="M225.9,5.5l0.4-0.5c0.7,0.6,1.3,0.9,2.1,0.9s1.4-0.4,1.4-1.1l0,0c0-0.6-0.3-0.9-1.6-1.2
		c-1.4-0.3-2.1-0.8-2.1-1.8l0,0c0-1,0.9-1.7,2.1-1.7c0.9,0,1.6,0.3,2.2,0.8L230,1.4c-0.6-0.5-1.2-0.7-1.8-0.7c-0.8,0-1.3,0.4-1.3,1
		l0,0c0,0.6,0.3,0.9,1.7,1.2s2,0.8,2,1.8l0,0c0,1.1-0.9,1.8-2.1,1.8C227.5,6.5,226.6,6.2,225.9,5.5z"/>
	<path class="st1" d="M232,0.1h0.7l2.3,3.4l2.3-3.4h0.7v6.2h-0.7v-5L235,4.7l0,0l-2.3-3.3v5.1H232V0.1z"/>
</g>
<g>
	<path class="st1" d="M28.8,30.6h-3.1v2.9h3.5v0.9h-4.5v-8.1H29v0.9h-3.3v2.6h3.1V30.6z"/>
	<path class="st1" d="M33,34.4l-2.6-8.1h1.1l1.3,4c0.3,1.1,0.6,2.1,0.9,3h0c0.2-0.9,0.6-2,0.9-3l1.4-4h1.1l-2.9,8.1H33z"/>
	<path class="st1" d="M42.7,30.6h-3.1v2.9h3.5v0.9h-4.5v-8.1h4.4v0.9h-3.3v2.6h3.1V30.6z"/>
	<path class="st1" d="M45,26.4c0.5-0.1,1.3-0.2,2-0.2c1.1,0,1.8,0.2,2.3,0.7c0.4,0.4,0.6,0.9,0.6,1.5c0,1.1-0.7,1.8-1.5,2.1v0
		c0.6,0.2,1,0.8,1.2,1.6c0.3,1.1,0.5,1.9,0.6,2.2h-1.1c-0.1-0.2-0.3-0.9-0.5-1.9c-0.2-1.1-0.7-1.5-1.6-1.6h-1v3.5h-1V26.4z
		 M46.1,30.1h1.1c1.1,0,1.8-0.6,1.8-1.5c0-1-0.8-1.5-1.9-1.5c-0.5,0-0.9,0-1,0.1V30.1z"/>
	<path class="st1" d="M52.1,26.4c0.5-0.1,1.2-0.2,2-0.2c1,0,1.8,0.2,2.3,0.7c0.4,0.4,0.7,1,0.7,1.7c0,0.7-0.2,1.3-0.6,1.7
		c-0.6,0.6-1.5,0.9-2.5,0.9c-0.3,0-0.6,0-0.8-0.1v3.2h-1V26.4z M53.1,30.3c0.2,0.1,0.5,0.1,0.9,0.1c1.3,0,2-0.6,2-1.7
		c0-1.1-0.8-1.6-1.9-1.6c-0.5,0-0.8,0-1,0.1V30.3z"/>
	<path class="st1" d="M59.1,26.3h1v7.2h3.5v0.9h-4.5V26.3z"/>
	<path class="st1" d="M66.7,31.8l-0.8,2.5h-1.1l2.7-8.1h1.3l2.8,8.1h-1.1l-0.9-2.5H66.7z M69.3,31l-0.8-2.3c-0.2-0.5-0.3-1-0.4-1.5
		h0c-0.1,0.5-0.3,1-0.4,1.5L66.9,31H69.3z"/>
	<path class="st1" d="M73.3,34.4v-8.1h1.1l2.6,4.1c0.6,0.9,1.1,1.8,1.5,2.6l0,0c-0.1-1.1-0.1-2.1-0.1-3.3v-3.4h1v8.1h-1.1l-2.6-4.1
		c-0.6-0.9-1.1-1.8-1.5-2.7l0,0c0.1,1,0.1,2,0.1,3.3v3.5H73.3z"/>
	<path class="st1" d="M81.6,33.1c0.5,0.3,1.2,0.5,1.9,0.5c1.1,0,1.7-0.6,1.7-1.4c0-0.8-0.4-1.2-1.5-1.6c-1.3-0.5-2.1-1.2-2.1-2.3
		c0-1.3,1-2.2,2.6-2.2c0.8,0,1.4,0.2,1.8,0.4l-0.3,0.9c-0.3-0.1-0.8-0.4-1.5-0.4c-1.1,0-1.5,0.7-1.5,1.2c0,0.8,0.5,1.1,1.6,1.6
		c1.4,0.5,2.1,1.2,2.1,2.4c0,1.2-0.9,2.3-2.8,2.3c-0.8,0-1.6-0.2-2.1-0.5L81.6,33.1z"/>
	<path class="st1" d="M88.6,26.5h-1.2v-0.4h2.9v0.4h-1.2V30h-0.5V26.5z"/>
	<path class="st1" d="M94.3,28.3c0-0.5-0.1-1.2-0.1-1.7h0c-0.1,0.5-0.3,1-0.5,1.5L93.1,30h-0.4L92,28.1c-0.2-0.6-0.3-1.1-0.5-1.5h0
		c0,0.5,0,1.1-0.1,1.7L91.4,30h-0.5l0.3-3.9h0.6l0.7,1.9c0.2,0.5,0.3,0.9,0.4,1.3h0c0.1-0.4,0.2-0.8,0.4-1.3l0.7-1.9h0.6l0.2,3.9
		h-0.5L94.3,28.3z"/>
	<path class="st1" d="M99.6,26.4c0.5-0.1,1.2-0.2,2-0.2c1,0,1.8,0.2,2.3,0.7c0.4,0.4,0.7,1,0.7,1.7c0,0.7-0.2,1.3-0.6,1.7
		c-0.6,0.6-1.5,0.9-2.5,0.9c-0.3,0-0.6,0-0.8-0.1v3.2h-1V26.4z M100.7,30.3c0.2,0.1,0.5,0.1,0.9,0.1c1.3,0,2-0.6,2-1.7
		c0-1.1-0.8-1.6-1.9-1.6c-0.5,0-0.8,0-1,0.1V30.3z"/>
	<path class="st1" d="M106.6,26.4c0.5-0.1,1.3-0.2,2-0.2c1.1,0,1.8,0.2,2.3,0.7c0.4,0.4,0.6,0.9,0.6,1.5c0,1.1-0.7,1.8-1.5,2.1v0
		c0.6,0.2,1,0.8,1.2,1.6c0.3,1.1,0.5,1.9,0.6,2.2h-1.1c-0.1-0.2-0.3-0.9-0.5-1.9c-0.2-1.1-0.7-1.5-1.6-1.6h-1v3.5h-1V26.4z
		 M107.6,30.1h1.1c1.1,0,1.8-0.6,1.8-1.5c0-1-0.8-1.5-1.9-1.5c-0.5,0-0.9,0-1,0.1V30.1z"/>
	<path class="st1" d="M117.8,30.6h-3.1v2.9h3.5v0.9h-4.5v-8.1h4.4v0.9h-3.3v2.6h3.1V30.6z"/>
	<path class="st1" d="M120.2,26.3h4.4v0.9h-3.3v2.7h3.1v0.9h-3.1v3.7h-1V26.3z"/>
	<path class="st1" d="M130.8,30.6h-3.1v2.9h3.5v0.9h-4.5v-8.1h4.4v0.9h-3.3v2.6h3.1V30.6z"/>
	<path class="st1" d="M133.1,26.4c0.5-0.1,1.3-0.2,2-0.2c1.1,0,1.8,0.2,2.3,0.7c0.4,0.4,0.6,0.9,0.6,1.5c0,1.1-0.7,1.8-1.5,2.1v0
		c0.6,0.2,1,0.8,1.2,1.6c0.3,1.1,0.5,1.9,0.6,2.2h-1.1c-0.1-0.2-0.3-0.9-0.5-1.9c-0.2-1.1-0.7-1.5-1.6-1.6h-1v3.5h-1V26.4z
		 M134.1,30.1h1.1c1.1,0,1.8-0.6,1.8-1.5c0-1-0.8-1.5-1.9-1.5c-0.5,0-0.9,0-1,0.1V30.1z"/>
	<path class="st1" d="M140.2,26.4c0.5-0.1,1.3-0.2,2-0.2c1.1,0,1.8,0.2,2.3,0.7c0.4,0.4,0.6,0.9,0.6,1.5c0,1.1-0.7,1.8-1.5,2.1v0
		c0.6,0.2,1,0.8,1.2,1.6c0.3,1.1,0.5,1.9,0.6,2.2h-1.1c-0.1-0.2-0.3-0.9-0.5-1.9c-0.2-1.1-0.7-1.5-1.6-1.6h-1v3.5h-1V26.4z
		 M141.2,30.1h1.1c1.1,0,1.8-0.6,1.8-1.5c0-1-0.8-1.5-1.9-1.5c-0.5,0-0.9,0-1,0.1V30.1z"/>
	<path class="st1" d="M151.4,30.6h-3.1v2.9h3.5v0.9h-4.5v-8.1h4.4v0.9h-3.3v2.6h3.1V30.6z"/>
	<path class="st1" d="M153.7,26.4c0.6-0.1,1.4-0.2,2.2-0.2c1.5,0,2.6,0.3,3.3,1c0.7,0.7,1.1,1.6,1.1,2.9c0,1.3-0.4,2.4-1.2,3.1
		c-0.8,0.8-2,1.2-3.6,1.2c-0.7,0-1.4,0-1.9-0.1V26.4z M154.8,33.5c0.3,0,0.6,0.1,1.1,0.1c2.2,0,3.4-1.2,3.4-3.4
		c0-1.9-1.1-3.1-3.3-3.1c-0.5,0-0.9,0-1.2,0.1V33.5z"/>
	<path class="st1" d="M165.5,26.4c0.5-0.1,1.2-0.2,2-0.2c1,0,1.8,0.2,2.3,0.7c0.4,0.4,0.7,1,0.7,1.7c0,0.7-0.2,1.3-0.6,1.7
		c-0.6,0.6-1.5,0.9-2.5,0.9c-0.3,0-0.6,0-0.8-0.1v3.2h-1V26.4z M166.5,30.3c0.2,0.1,0.5,0.1,0.9,0.1c1.3,0,2-0.6,2-1.7
		c0-1.1-0.8-1.6-1.9-1.6c-0.5,0-0.8,0-1,0.1V30.3z"/>
	<path class="st1" d="M172.7,31.8l-0.8,2.5h-1.1l2.7-8.1h1.3l2.8,8.1h-1.1l-0.9-2.5H172.7z M175.4,31l-0.8-2.3
		c-0.2-0.5-0.3-1-0.4-1.5h0c-0.1,0.5-0.3,1-0.4,1.5L173,31H175.4z"/>
	<path class="st1" d="M179.4,26.4c0.5-0.1,1.3-0.2,2-0.2c1.1,0,1.8,0.2,2.3,0.7c0.4,0.4,0.6,0.9,0.6,1.5c0,1.1-0.7,1.8-1.5,2.1v0
		c0.6,0.2,1,0.8,1.2,1.6c0.3,1.1,0.5,1.9,0.6,2.2h-1.1c-0.1-0.2-0.3-0.9-0.5-1.9c-0.2-1.1-0.7-1.5-1.6-1.6h-1v3.5h-1V26.4z
		 M180.4,30.1h1.1c1.1,0,1.8-0.6,1.8-1.5c0-1-0.8-1.5-1.9-1.5c-0.5,0-0.9,0-1,0.1V30.1z"/>
	<path class="st1" d="M188.1,27.2h-2.5v-0.9h6v0.9h-2.5v7.2h-1.1V27.2z"/>
	<path class="st1" d="M193.1,34.4v-8.1h1.1l2.6,4.1c0.6,0.9,1.1,1.8,1.5,2.6l0,0c-0.1-1.1-0.1-2.1-0.1-3.3v-3.4h1v8.1h-1.1l-2.6-4.1
		c-0.6-0.9-1.1-1.8-1.5-2.7l0,0c0.1,1,0.1,2,0.1,3.3v3.5H193.1z"/>
	<path class="st1" d="M205.8,30.6h-3.1v2.9h3.5v0.9h-4.5v-8.1h4.4v0.9h-3.3v2.6h3.1V30.6z"/>
	<path class="st1" d="M208.1,26.4c0.5-0.1,1.3-0.2,2-0.2c1.1,0,1.8,0.2,2.3,0.7c0.4,0.4,0.6,0.9,0.6,1.5c0,1.1-0.7,1.8-1.5,2.1v0
		c0.6,0.2,1,0.8,1.2,1.6c0.3,1.1,0.5,1.9,0.6,2.2h-1.1c-0.1-0.2-0.3-0.9-0.5-1.9c-0.2-1.1-0.7-1.5-1.6-1.6h-1v3.5h-1V26.4z
		 M209.1,30.1h1.1c1.1,0,1.8-0.6,1.8-1.5c0-1-0.8-1.5-1.9-1.5c-0.5,0-0.9,0-1,0.1V30.1z"/>
</g>
</svg>
