<?xml version="1.0" encoding="utf-8"?>
<!-- Generator: Adobe Illustrator 21.0.2, SVG Export Plug-In . SVG Version: 6.00 Build 0)  -->
<svg version="1.1" id="Layer_1" xmlns="http://www.w3.org/2000/svg" xmlns:xlink="http://www.w3.org/1999/xlink" x="0px" y="0px"
	 viewBox="0 0 630 166.5" style="enable-background:new 0 0 630 166.5;" xml:space="preserve">
<style type="text/css">
	.st0{opacity:0.1;enable-background:new    ;}
	.st1{fill:#FFFFFF;}
</style>
<rect y="84.8" class="st0" width="630" height="59.2"/>
<g>
	<path class="st1" d="M20,42.3L20,42.3c0-10.7,7.7-19.8,19.3-19.8s19.3,9.2,19.3,19.8l0,0c0,10.4-7.7,19.8-19.3,19.8
		S20,52.9,20,42.3z M55.7,42.3L55.7,42.3c0-9.7-6.9-17.4-16.4-17.4S23,32.6,23,42.3l0,0c0,9.4,6.9,17.4,16.4,17.4
		S55.7,51.9,55.7,42.3z"/>
	<path class="st1" d="M67.6,45.5V23.2h2.7v22.1c0,8.9,5,14.1,12.9,14.1c7.7,0,12.9-4.7,12.9-13.9V23.2h2.7v22.1
		c0,10.9-6.4,16.9-15.6,16.9C74.3,62.1,67.6,56.1,67.6,45.5z"/>
	<path class="st1" d="M110,23.2h16.1c4.7,0,8.4,1.5,10.9,3.7c1.7,1.7,3,4.5,3,7.2l0,0c0,6.4-4.7,10.2-11.2,10.9l12.6,16.4h-3.7
		l-12.1-15.9H113v15.9h-2.7V23.2H110z M125.6,43c6.4,0,11.2-3.2,11.2-8.7l0,0c0-5.2-4-8.4-10.9-8.4h-13.1v17.4L125.6,43L125.6,43z"
		/>
	<path class="st1" d="M166,23.2h2.7v35.7h22.6v2.7H166V23.2z"/>
	<path class="st1" d="M200.2,23.2h2.7v38.4h-2.7V23.2z"/>
	<path class="st1" d="M214.8,23.2h27v2.7h-24v15.6h21.8v2.7h-21.8v17.4h-2.7V23.2H214.8z"/>
	<path class="st1" d="M250.8,23.2h27.3v2.7h-24.5V41h22.1v2.7h-22.1v15.4h24.8v2.7h-27.5L250.8,23.2L250.8,23.2z"/>
	<path class="st1" d="M301.4,42.3L301.4,42.3c0-10.9,8.2-19.8,20.1-19.8c7.2,0,11.7,2.5,15.1,5.9l-5.5,6.2c-3-2.7-5.9-4.2-9.9-4.2
		c-6.4,0-11.2,5.5-11.2,11.9l0,0c0,6.7,4.5,12.1,11.2,12.1c4.5,0,7.2-1.7,10.2-4.5l5.5,5.5c-4,4.2-8.4,6.9-15.6,6.9
		C309.5,62.1,301.4,53.4,301.4,42.3z"/>
	<path class="st1" d="M340.5,42.3L340.5,42.3c0-10.9,8.7-19.8,20.3-19.8c11.9,0,20.3,8.9,20.3,19.8l0,0c0,10.9-8.7,19.8-20.3,19.8
		S340.5,53.2,340.5,42.3z M372.5,42.3L372.5,42.3c0-6.7-4.7-12.1-11.7-12.1c-6.7,0-11.4,5.5-11.4,11.9l0,0c0,6.7,4.7,12.1,11.7,12.1
		C367.8,54.4,372.5,48.9,372.5,42.3z"/>
	<path class="st1" d="M383.2,23.2h9.4l9.9,27l9.9-27h9.2L406,61.8h-7.4L383.2,23.2z"/>
	<path class="st1" d="M427.5,23.2h29v7.4H436v7.7h18.1v7.4H436v7.9h20.8V61h-29.3V23.2L427.5,23.2z"/>
	<path class="st1" d="M464.2,23.2h17.6c5,0,8.7,1.5,11.2,4c2.2,2.2,3.2,5.2,3.2,8.7l0,0c0,6.2-3.2,10.2-8.2,11.9l9.4,13.6h-9.9
		L479.3,49h-6.7v12.4h-8.4V23.2L464.2,23.2z M481.3,41.8c4.2,0,6.4-2.2,6.4-5.5l0,0c0-3.7-2.5-5.5-6.7-5.5h-8.4v10.9h8.7V41.8z"/>
	<path class="st1" d="M503.9,23.2h29v7.4h-20.6v7.7h18.1v7.4h-18.1v7.9h20.8V61h-29.3L503.9,23.2L503.9,23.2z"/>
	<path class="st1" d="M540.6,23.2h14.9c12.1,0,20.3,8.2,20.3,19.1l0,0c0,10.9-8.4,19.1-20.3,19.1h-14.9V23.2z M555.5,53.9
		c6.9,0,11.7-4.7,11.7-11.4l0,0c0-6.7-4.7-11.7-11.7-11.7H549v23.1H555.5z"/>
	<path class="st1" d="M580,36.1l1-1.2c1.7,1.5,3.2,2.2,5.2,2.2s3.5-1,3.5-2.7l0,0c0-1.5-0.7-2.2-4-3c-3.5-0.7-5.2-2-5.2-4.5l0,0
		c0-2.5,2.2-4.2,5.2-4.2c2.2,0,4,0.7,5.5,2l-1,1.2c-1.5-1.2-3-1.7-4.5-1.7c-2,0-3.2,1-3.2,2.5l0,0c0,1.5,0.7,2.2,4.2,3
		c3.5,0.7,5,2,5,4.5l0,0c0,2.7-2.2,4.5-5.2,4.5C584,38.5,581.7,37.8,580,36.1z"/>
	<path class="st1" d="M595.1,22.7h1.7l5.7,8.4l5.7-8.4h1.7V38h-1.7V25.6l-5.7,8.4l0,0l-5.7-8.2v12.6h-1.7V22.7z"/>
</g>
<g>
	<path class="st1" d="M76.2,115.2H68v7.7h9.3v2.4H65.4v-21.4h11.4v2.4H68v6.9h8.2C76.2,113.1,76.2,115.2,76.2,115.2z"/>
	<path class="st1" d="M87.4,125.2l-6.9-21.4h2.9l3.4,10.6c0.8,2.9,1.6,5.6,2.4,7.9l0,0c0.5-2.4,1.6-5.3,2.4-7.9l3.7-10.6h2.9
		l-7.7,21.4H87.4z"/>
	<path class="st1" d="M113,115.2h-8.2v7.7h9.3v2.4h-11.9v-21.4h11.6v2.4h-8.7v6.9h8.2v2.1L113,115.2L113,115.2z"/>
	<path class="st1" d="M119.1,104.1c1.3-0.3,3.4-0.5,5.3-0.5c2.9,0,4.8,0.5,6.1,1.9c1.1,1.1,1.6,2.4,1.6,4c0,2.9-1.9,4.8-4,5.6l0,0
		c1.6,0.5,2.6,2.1,3.2,4.2c0.8,2.9,1.3,5,1.6,5.8H130c-0.3-0.5-0.8-2.4-1.3-5c-0.5-2.9-1.9-4-4.2-4.2h-2.6v9.3h-2.6v-21.1H119.1z
		 M122,113.8h2.9c2.9,0,4.8-1.6,4.8-4c0-2.6-2.1-4-5-4c-1.3,0-2.4,0-2.6,0.3C122,106.2,122,113.8,122,113.8z"/>
	<path class="st1" d="M137.9,104.1c1.3-0.3,3.2-0.5,5.3-0.5c2.6,0,4.8,0.5,6.1,1.9c1.1,1.1,1.9,2.6,1.9,4.5s-0.5,3.4-1.6,4.5
		c-1.6,1.6-4,2.4-6.6,2.4c-0.8,0-1.6,0-2.1-0.3v8.5h-2.6v-20.9L137.9,104.1L137.9,104.1z M140.6,114.4c0.5,0.3,1.3,0.3,2.4,0.3
		c3.4,0,5.3-1.6,5.3-4.5s-2.1-4.2-5-4.2c-1.3,0-2.1,0-2.6,0.3L140.6,114.4L140.6,114.4z"/>
	<path class="st1" d="M156.4,103.8h2.6v19.1h9.3v2.4h-11.9L156.4,103.8L156.4,103.8z"/>
	<path class="st1" d="M176.6,118.3l-2.1,6.6h-2.9l7.1-21.4h3.4l7.4,21.4h-2.9l-2.4-6.6H176.6z M183.4,116.2l-2.1-6.1
		c-0.5-1.3-0.8-2.6-1.1-4l0,0c-0.3,1.3-0.8,2.6-1.1,4l-2.1,6.1H183.4z"/>
	<path class="st1" d="M194,125.2v-21.4h2.9l6.9,10.9c1.6,2.4,2.9,4.8,4,6.9l0,0c-0.3-2.9-0.3-5.6-0.3-8.7v-9h2.6v21.4h-2.9
		l-6.9-10.9c-1.6-2.4-2.9-4.8-4-7.1l0,0c0.3,2.6,0.3,5.3,0.3,8.7v9.3H194V125.2z"/>
	<path class="st1" d="M216,121.8c1.3,0.8,3.2,1.3,5,1.3c2.9,0,4.5-1.6,4.5-3.7s-1.1-3.2-4-4.2c-3.4-1.3-5.6-3.2-5.6-6.1
		c0-3.4,2.6-5.8,6.9-5.8c2.1,0,3.7,0.5,4.8,1.1l-0.8,2.4c-0.8-0.3-2.1-1.1-4-1.1c-2.9,0-4,1.9-4,3.2c0,2.1,1.3,2.9,4.2,4.2
		c3.7,1.3,5.6,3.2,5.6,6.4s-2.4,6.1-7.4,6.1c-2.1,0-4.2-0.5-5.6-1.3L216,121.8z"/>
	<path class="st1" d="M234.5,104.3h-3.2v-1.1h7.7v1.1h-3.2v9.3h-1.3C234.5,113.6,234.5,104.3,234.5,104.3z"/>
	<path class="st1" d="M249.6,109.1c0-1.3-0.3-3.2-0.3-4.5l0,0c-0.3,1.3-0.8,2.6-1.3,4l-1.6,5h-1.1l-1.9-5c-0.5-1.6-0.8-2.9-1.3-4
		l0,0c0,1.3,0,2.9-0.3,4.5v4.5h-1.3l0.8-10.3h1.6l1.9,5c0.5,1.3,0.8,2.4,1.1,3.4l0,0c0.3-1.1,0.5-2.1,1.1-3.4l1.9-5h1.6l0.5,10.3
		h-1.3L249.6,109.1z"/>
	<path class="st1" d="M263.6,104.1c1.3-0.3,3.2-0.5,5.3-0.5c2.6,0,4.8,0.5,6.1,1.9c1.1,1.1,1.9,2.6,1.9,4.5s-0.5,3.4-1.6,4.5
		c-1.6,1.6-4,2.4-6.6,2.4c-0.8,0-1.6,0-2.1-0.3v8.5H264v-20.9L263.6,104.1L263.6,104.1z M266.6,114.4c0.5,0.3,1.3,0.3,2.4,0.3
		c3.4,0,5.3-1.6,5.3-4.5s-2.1-4.2-5-4.2c-1.3,0-2.1,0-2.6,0.3L266.6,114.4L266.6,114.4z"/>
	<path class="st1" d="M282.2,104.1c1.3-0.3,3.4-0.5,5.3-0.5c2.9,0,4.8,0.5,6.1,1.9c1.1,1.1,1.6,2.4,1.6,4c0,2.9-1.9,4.8-4,5.6l0,0
		c1.6,0.5,2.6,2.1,3.2,4.2c0.8,2.9,1.3,5,1.6,5.8h-3c-0.3-0.5-0.8-2.4-1.3-5c-0.5-2.9-1.9-4-4.2-4.2h-2.6v9.3h-2.6L282.2,104.1
		L282.2,104.1z M284.8,113.8h2.9c2.9,0,4.8-1.6,4.8-4c0-2.6-2.1-4-5-4c-1.3,0-2.4,0-2.6,0.3L284.8,113.8L284.8,113.8z"/>
	<path class="st1" d="M311.8,115.2h-8.2v7.7h9.3v2.4H301v-21.4h11.6v2.4h-8.7v6.9h8.2v2.1L311.8,115.2L311.8,115.2z"/>
	<path class="st1" d="M318.2,103.8h11.6v2.4h-8.7v7.1h8.2v2.4h-8.2v9.8h-2.6v-21.7H318.2z"/>
	<path class="st1" d="M346.2,115.2H338v7.7h9.3v2.4h-11.9v-21.4H347v2.4h-8.7v6.9h8.2v2.1L346.2,115.2L346.2,115.2z"/>
	<path class="st1" d="M352.3,104.1c1.3-0.3,3.4-0.5,5.3-0.5c2.9,0,4.8,0.5,6.1,1.9c1.1,1.1,1.6,2.4,1.6,4c0,2.9-1.9,4.8-4,5.6l0,0
		c1.6,0.5,2.6,2.1,3.2,4.2c0.8,2.9,1.3,5,1.6,5.8h-2.9c-0.3-0.5-0.8-2.4-1.3-5c-0.5-2.9-1.9-4-4.2-4.2H355v9.3h-2.6v-21.1H352.3z
		 M355,113.8h2.9c2.9,0,4.8-1.6,4.8-4c0-2.6-2.1-4-5-4c-1.3,0-2.4,0-2.6,0.3L355,113.8L355,113.8z"/>
	<path class="st1" d="M371.1,104.1c1.3-0.3,3.4-0.5,5.3-0.5c2.9,0,4.8,0.5,6.1,1.9c1.1,1.1,1.6,2.4,1.6,4c0,2.9-1.9,4.8-4,5.6l0,0
		c1.6,0.5,2.6,2.1,3.2,4.2c0.8,2.9,1.3,5,1.6,5.8H382c-0.3-0.5-0.8-2.4-1.3-5c-0.5-2.9-1.9-4-4.2-4.2h-2.6v9.3h-2.6v-21.1H371.1z
		 M373.8,113.8h2.9c2.9,0,4.8-1.6,4.8-4c0-2.6-2.1-4-5-4c-1.3,0-2.4,0-2.6,0.3L373.8,113.8L373.8,113.8z"/>
	<path class="st1" d="M400.8,115.2h-8.2v7.7h9.3v2.4H390v-21.4h11.6v2.4h-8.7v6.9h8.2v2.1L400.8,115.2L400.8,115.2z"/>
	<path class="st1" d="M406.9,104.1c1.6-0.3,3.7-0.5,5.8-0.5c4,0,6.9,0.8,8.7,2.6c1.9,1.9,2.9,4.2,2.9,7.7s-1.1,6.4-3.2,8.2
		c-2.1,2.1-5.3,3.2-9.5,3.2c-1.9,0-3.7,0-5-0.3v-20.9L406.9,104.1L406.9,104.1z M409.8,122.8c0.8,0,1.6,0.3,2.9,0.3c5.8,0,9-3.2,9-9
		c0-5-2.9-8.2-8.7-8.2c-1.3,0-2.4,0-3.2,0.3L409.8,122.8L409.8,122.8z"/>
	<path class="st1" d="M438.1,104.1c1.3-0.3,3.2-0.5,5.3-0.5c2.6,0,4.8,0.5,6.1,1.9c1.1,1.1,1.9,2.6,1.9,4.5s-0.5,3.4-1.6,4.5
		c-1.6,1.6-4,2.4-6.6,2.4c-0.8,0-1.6,0-2.1-0.3v8.5h-2.6v-20.9L438.1,104.1L438.1,104.1z M440.7,114.4c0.5,0.3,1.3,0.3,2.4,0.3
		c3.4,0,5.3-1.6,5.3-4.5s-2.1-4.2-5-4.2c-1.3,0-2.1,0-2.6,0.3L440.7,114.4L440.7,114.4z"/>
	<path class="st1" d="M457.1,118.3L455,125h-2.9l7.1-21.4h3.4L470,125h-2.9l-2.4-6.6L457.1,118.3L457.1,118.3z M464.3,116.2
		l-2.1-6.1c-0.5-1.3-0.8-2.6-1.1-4l0,0c-0.3,1.3-0.8,2.6-1.1,4l-2.1,6.1H464.3z"/>
	<path class="st1" d="M474.9,104.1c1.3-0.3,3.4-0.5,5.3-0.5c2.9,0,4.8,0.5,6.1,1.9c1.1,1.1,1.6,2.4,1.6,4c0,2.9-1.9,4.8-4,5.6l0,0
		c1.6,0.5,2.6,2.1,3.2,4.2c0.8,2.9,1.3,5,1.6,5.8h-2.9c-0.3-0.5-0.8-2.4-1.3-5c-0.5-2.9-1.9-4-4.2-4.2h-2.6v9.3h-2.6v-21.1H474.9z
		 M477.5,113.8h2.9c2.9,0,4.8-1.6,4.8-4c0-2.6-2.1-4-5-4c-1.3,0-2.4,0-2.6,0.3L477.5,113.8L477.5,113.8z"/>
	<path class="st1" d="M497.9,106.2h-6.6v-2.4h15.9v2.4h-6.6v19.1h-2.9v-19.1H497.9z"/>
	<path class="st1" d="M511.1,125.2v-21.4h2.9l6.9,10.9c1.6,2.4,2.9,4.8,4,6.9l0,0c-0.3-2.9-0.3-5.6-0.3-8.7v-9h2.6v21.4h-2.9
		l-6.9-10.9c-1.6-2.4-2.9-4.8-4-7.1l0,0c0.3,2.6,0.3,5.3,0.3,8.7v9.3h-2.6V125.2z"/>
	<path class="st1" d="M544.8,115.2h-8.2v7.7h9.3v2.4H534v-21.4h11.6v2.4h-8.7v6.9h8.2v2.1L544.8,115.2L544.8,115.2z"/>
	<path class="st1" d="M550.9,104.1c1.3-0.3,3.4-0.5,5.3-0.5c2.9,0,4.8,0.5,6.1,1.9c1.1,1.1,1.6,2.4,1.6,4c0,2.9-1.9,4.8-4,5.6l0,0
		c1.6,0.5,2.6,2.1,3.2,4.2c0.8,2.9,1.3,5,1.6,5.8h-2.9c-0.3-0.5-0.8-2.4-1.3-5c-0.5-2.9-1.9-4-4.2-4.2h-2.6v9.3h-2.6v-21.1H550.9z
		 M553.5,113.8h2.9c2.9,0,4.8-1.6,4.8-4c0-2.6-2.1-4-5-4c-1.3,0-2.4,0-2.6,0.3L553.5,113.8L553.5,113.8z"/>
</g>
</svg>
