<?xml version="1.0" encoding="utf-8"?>
<!-- Generator: Adobe Illustrator 21.0.1, SVG Export Plug-In . SVG Version: 6.00 Build 0)  -->
<svg version="1.1" id="Layer_1" xmlns="http://www.w3.org/2000/svg" xmlns:xlink="http://www.w3.org/1999/xlink" x="0px" y="0px"
	 viewBox="0 0 668.9 30" style="enable-background:new 0 0 668.9 30;" xml:space="preserve">
<style type="text/css">
	.st0{opacity:0.18;}
	.st1{fill:#FFFFFF;}
	.st2{font-family:'Arial-BoldMT';}
	.st3{font-size:2.2558px;}
</style>
<rect x="453.3" y="0.3" class="st0" width="215.6" height="29.7"/>
<g>
	<path class="st1" d="M486.7,15.7h-7.4c-0.1,1.3,0.2,2.3,0.8,3.2c0.7,1,1.7,1.5,2.9,1.5c1.1,0,2.1-0.6,3.1-1.8l0.7,0.5
		c-1.1,1.5-2.5,2.2-4.3,2.2c-1.6,0-2.9-0.5-3.9-1.6c-1-1-1.5-2.3-1.5-3.9c0-1.5,0.5-2.8,1.4-3.8c0.9-1,2.2-1.5,3.7-1.5
		c1.4,0,2.5,0.5,3.3,1.4C486.4,13.1,486.7,14.3,486.7,15.7 M479.4,14.7h5c0.1-0.9-0.1-1.6-0.5-2.1c-0.4-0.7-1-1-1.9-1
		c-0.8,0-1.5,0.3-2,1C479.7,13.1,479.5,13.8,479.4,14.7"/>
	<path class="st1" d="M492.2,18.8l1.8-4.1c0.5-1.1,0.7-1.8,0.7-2.1c0-0.3-0.2-0.5-0.6-0.6c-0.4-0.1-0.6-0.3-0.6-0.6V11h4v0.4
		c0,0.3-0.1,0.4-0.2,0.4c-0.3,0.1-0.5,0.2-0.6,0.2c-0.3,0.2-0.6,0.6-0.9,1.3l-3.5,8h-1.2l-3.6-8.2c-0.3-0.6-0.5-0.9-0.8-1.1
		c0,0-0.2-0.1-0.5-0.2c-0.2,0-0.2-0.2-0.2-0.5V11h4.9v0.4c0,0.3-0.2,0.5-0.6,0.6c-0.4,0.1-0.6,0.3-0.6,0.5c0,0.1,0.1,0.4,0.3,0.8
		L492.2,18.8z"/>
	<path class="st1" d="M506,15.7h-7.4c-0.1,1.3,0.2,2.3,0.8,3.2c0.7,1,1.7,1.5,2.9,1.5c1.1,0,2.1-0.6,3.1-1.8l0.7,0.5
		c-1.1,1.5-2.5,2.2-4.3,2.2c-1.6,0-2.9-0.5-3.9-1.6c-1-1-1.5-2.3-1.5-3.9c0-1.5,0.5-2.8,1.4-3.8s2.2-1.5,3.7-1.5
		c1.4,0,2.5,0.5,3.3,1.4C505.7,13.1,506.1,14.3,506,15.7 M498.7,14.7h5c0.1-0.9-0.1-1.6-0.5-2.1c-0.4-0.7-1-1-1.9-1s-1.5,0.3-2,1
		C499.1,13.1,498.8,13.8,498.7,14.7"/>
	<path class="st1" d="M509.5,10.9v3.2c0.2-0.8,0.5-1.6,1-2.2c0.6-0.8,1.2-1.2,2-1.2c0.4,0,0.7,0.1,1,0.3c0.3,0.2,0.4,0.5,0.4,0.9
		c0,0.3-0.1,0.6-0.4,0.8c-0.2,0.2-0.5,0.3-0.9,0.3c-0.2,0-0.4-0.1-0.7-0.2c-0.2-0.1-0.4-0.2-0.5-0.2c-0.5,0-1,0.6-1.4,1.8
		c-0.4,1.1-0.6,2-0.6,2.9v2c0,0.5,0.1,0.8,0.3,0.9c0.2,0,0.4,0,0.6,0.1c0.2,0,0.3,0.2,0.3,0.5v0.4h-4.5v-0.4c0-0.3,0.1-0.5,0.3-0.5
		c0.2,0,0.4-0.1,0.6-0.1c0.2-0.1,0.3-0.4,0.3-0.8v-6.5c0-0.5-0.1-0.7-0.3-0.8c-0.2,0-0.4-0.1-0.6-0.1s-0.3-0.2-0.3-0.5V11
		L509.5,10.9z"/>
	<path class="st1" d="M517.3,20.6v3.1c0,0.5,0.1,0.7,0.3,0.8c0.2,0,0.4,0.1,0.6,0.1c0.2,0,0.3,0.2,0.3,0.5v0.4h-4.4v-0.4
		c0-0.3,0.1-0.4,0.3-0.5c0.2-0.1,0.4-0.1,0.6-0.1c0.2-0.1,0.3-0.4,0.3-0.8V12.8c0-0.5-0.2-0.8-0.5-0.9c-0.3-0.1-0.5-0.2-0.5-0.5V11
		l3-0.1v1c1-0.8,2-1.2,3.1-1.2c1.5,0,2.6,0.5,3.6,1.5c0.9,1,1.3,2.3,1.3,3.8c0,1.5-0.4,2.8-1.3,3.8c-0.9,1.1-2.2,1.6-3.7,1.6
		C519.1,21.4,518.2,21.2,517.3,20.6 M517.3,12.5v7.2c0.6,0.6,1.4,0.8,2.3,0.8c1.2,0,2-0.5,2.6-1.5c0.4-0.8,0.7-1.8,0.7-3.1
		c0-1.2-0.2-2.2-0.7-3c-0.6-0.9-1.4-1.4-2.6-1.4C518.7,11.6,517.9,11.9,517.3,12.5"/>
	<path class="st1" d="M528.9,4.8v14.5c0,0.4,0.1,0.7,0.3,0.8c0.2,0,0.3,0.1,0.5,0.1c0.2,0.1,0.3,0.2,0.3,0.5v0.4h-4.2v-0.4
		c0-0.3,0.1-0.4,0.3-0.5c0.2-0.1,0.4-0.1,0.5-0.1c0.2-0.1,0.3-0.4,0.3-0.8V6.7c0-0.4-0.1-0.7-0.3-0.8c-0.2,0-0.4-0.1-0.5-0.1
		c-0.2-0.1-0.3-0.2-0.3-0.5V4.9L528.9,4.8z"/>
	<path class="st1" d="M536.7,14.7c0-2.2-0.7-3.3-2.1-3.3c-0.5,0-0.8,0.3-0.9,0.9c-0.1,0.8-0.5,1.1-1.2,1.1c-0.3,0-0.6-0.1-0.8-0.3
		c-0.2-0.2-0.3-0.5-0.3-0.8c0-0.6,0.4-1.1,1.2-1.4c0.7-0.3,1.3-0.4,2-0.4c1.8,0,3,0.6,3.7,1.8c0.4,0.6,0.5,1.4,0.5,2.3V18
		c0,1.5,0.3,2.3,0.9,2.3c0.2,0,0.4-0.1,0.6-0.3l0.1,0.1c0.1,0.2,0.2,0.3,0.2,0.3c0,0.2-0.2,0.4-0.5,0.6c-0.4,0.2-0.7,0.3-1.1,0.3
		c-0.9,0-1.6-0.5-2-1.5c-0.9,1-1.9,1.5-3.1,1.5c-0.9,0-1.8-0.3-2.4-0.8c-0.7-0.5-1.1-1.3-1.1-2.2C530.4,16.4,532.5,15.1,536.7,14.7
		 M536.8,17.6v-2c-1.1,0.1-2,0.4-2.7,0.8c-0.9,0.5-1.4,1.3-1.4,2.3c0,0.6,0.2,1,0.5,1.4c0.3,0.4,0.7,0.5,1.3,0.5
		c0.5,0,1.1-0.2,1.5-0.5C536.5,19.4,536.8,18.6,536.8,17.6"/>
	<path class="st1" d="M541.2,11.4V11l3-0.1v1.1c0.9-0.9,2-1.3,3.3-1.3c2.3,0,3.4,1,3.4,2.9v5.8c0,0.4,0.1,0.7,0.3,0.8
		c0.2,0,0.4,0.1,0.5,0.1c0.2,0.1,0.3,0.2,0.3,0.5v0.4h-4.3v-0.4c0-0.3,0.1-0.4,0.3-0.5c0.2-0.1,0.4-0.1,0.6-0.1
		c0.2-0.1,0.3-0.4,0.3-0.8v-5.2c0-0.8-0.1-1.4-0.3-1.7c-0.3-0.5-0.9-0.7-1.8-0.7c-0.4,0-0.9,0.1-1.3,0.4c-0.5,0.2-0.8,0.5-1,0.9v6.4
		c0,0.4,0.1,0.7,0.3,0.8c0.2,0,0.4,0.1,0.6,0.1c0.2,0.1,0.3,0.2,0.3,0.5v0.4h-4.2v-0.4c0-0.3,0.2-0.4,0.5-0.5
		c0.3-0.1,0.5-0.4,0.5-0.9v-6.5c0-0.4-0.1-0.7-0.3-0.8c0,0-0.2-0.1-0.5-0.2C541.3,11.8,541.2,11.6,541.2,11.4"/>
	<path class="st1" d="M555.9,21.4c-0.8,0-1.6-0.2-2.4-0.4c-1-0.4-1.5-0.9-1.5-1.6c0-0.3,0.1-0.6,0.4-0.8c0.2-0.2,0.5-0.3,0.9-0.3
		c0.3,0,0.6,0.1,0.8,0.3s0.4,0.4,0.4,0.7c0,0.1,0,0.2,0,0.3c0,0.1,0,0.2,0,0.3c0,0.5,0.5,0.8,1.5,0.8c0.6,0,1.1-0.1,1.6-0.4
		c0.5-0.3,0.8-0.8,0.8-1.3c0-0.7-0.5-1.3-1.5-1.7c-0.9-0.4-1.8-0.7-2.8-1.1c-1-0.5-1.5-1.3-1.5-2.3c0-1,0.5-1.7,1.4-2.3
		c0.8-0.5,1.7-0.8,2.8-0.8c0.7,0,1.4,0.1,2,0.4c0.8,0.3,1.2,0.8,1.2,1.4c0,0.3-0.1,0.6-0.4,0.8c-0.2,0.2-0.5,0.3-0.8,0.3
		c-0.3,0-0.6-0.1-0.8-0.2c-0.3-0.2-0.4-0.4-0.4-0.7c0-0.1,0-0.1,0-0.2s0-0.2,0-0.2c0-0.4-0.4-0.5-1.1-0.5c-0.5,0-0.9,0.1-1.3,0.4
		c-0.4,0.3-0.7,0.7-0.7,1.1c0,0.7,0.5,1.2,1.5,1.6c0.9,0.4,1.9,0.7,2.8,1.1c1,0.5,1.5,1.4,1.5,2.4c0,1.1-0.5,1.9-1.4,2.5
		C558,21.2,557,21.4,555.9,21.4"/>
	<path class="st1" d="M473.3,15.9c0,4.3-3.5,7.8-7.8,7.8c-4.3,0-7.8-3.5-7.8-7.8s3.5-7.8,7.8-7.8C469.9,8.1,473.3,11.6,473.3,15.9
		 M462.8,15.9c0-0.9-0.8-1.7-1.7-1.7c-0.9,0-1.7,0.8-1.7,1.7c0,0.9,0.8,1.7,1.7,1.7C462.1,17.6,462.8,16.8,462.8,15.9 M467.3,15.9
		c0-0.9-0.8-1.7-1.7-1.7c-0.9,0-1.7,0.8-1.7,1.7c0,0.9,0.8,1.7,1.7,1.7C466.5,17.6,467.3,16.8,467.3,15.9 M471.7,15.9
		c0-0.9-0.8-1.7-1.7-1.7c-0.9,0-1.7,0.8-1.7,1.7c0,0.9,0.8,1.7,1.7,1.7C471,17.6,471.7,16.8,471.7,15.9"/>
	<text transform="matrix(1 0 0 1 559.6191 10.9175)" class="st1 st2 st3">TM</text>
</g>
<g>
	<path class="st1" d="M574.8,13.7c0,0.7-0.2,1.2-0.7,1.6s-1.1,0.6-2,0.6h-0.8v2.7h-0.8v-6.8h1.8C574,11.8,574.8,12.4,574.8,13.7z
		 M571.3,15.2h0.7c0.7,0,1.2-0.1,1.5-0.3c0.3-0.2,0.5-0.6,0.5-1.1c0-0.4-0.1-0.8-0.4-1c-0.3-0.2-0.8-0.3-1.4-0.3h-0.9V15.2z"/>
	<path class="st1" d="M577,15.7v2.8h-0.8v-6.8h1.9c0.8,0,1.4,0.2,1.8,0.5c0.4,0.3,0.6,0.8,0.6,1.4c0,0.9-0.5,1.5-1.4,1.8l1.8,3.1
		h-0.9l-1.6-2.8H577z M577,15h1.1c0.6,0,1-0.1,1.2-0.3c0.3-0.2,0.4-0.6,0.4-1c0-0.4-0.1-0.8-0.4-1c-0.3-0.2-0.7-0.3-1.3-0.3h-1V15z"
		/>
	<path class="st1" d="M585.9,18.5h-3.8v-6.8h3.8v0.7h-3v2.2h2.8v0.7h-2.8v2.5h3V18.5z"/>
	<path class="st1" d="M588.2,18.5h-0.8v-6.8h3.8v0.7h-3v2.5h2.8v0.7h-2.8V18.5z"/>
	<path class="st1" d="M596.1,18.5h-3.8v-6.8h3.8v0.7h-3v2.2h2.8v0.7h-2.8v2.5h3V18.5z"/>
	<path class="st1" d="M598.4,15.7v2.8h-0.8v-6.8h1.9c0.8,0,1.4,0.2,1.8,0.5c0.4,0.3,0.6,0.8,0.6,1.4c0,0.9-0.5,1.5-1.4,1.8l1.8,3.1
		h-0.9l-1.6-2.8H598.4z M598.4,15h1.1c0.6,0,1-0.1,1.2-0.3c0.3-0.2,0.4-0.6,0.4-1c0-0.4-0.1-0.8-0.4-1c-0.3-0.2-0.7-0.3-1.3-0.3h-1
		V15z"/>
	<path class="st1" d="M604.3,15.7v2.8h-0.8v-6.8h1.9c0.8,0,1.4,0.2,1.8,0.5c0.4,0.3,0.6,0.8,0.6,1.4c0,0.9-0.5,1.5-1.4,1.8l1.8,3.1
		h-0.9l-1.6-2.8H604.3z M604.3,15h1.1c0.6,0,1-0.1,1.2-0.3c0.3-0.2,0.4-0.6,0.4-1c0-0.4-0.1-0.8-0.4-1c-0.3-0.2-0.7-0.3-1.3-0.3h-1
		V15z"/>
	<path class="st1" d="M613.1,18.5h-3.8v-6.8h3.8v0.7h-3v2.2h2.8v0.7h-2.8v2.5h3V18.5z"/>
	<path class="st1" d="M620.1,15.1c0,1.1-0.3,2-0.9,2.6c-0.6,0.6-1.5,0.9-2.6,0.9h-1.9v-6.8h2.1c1.1,0,1.9,0.3,2.5,0.9
		C619.8,13.2,620.1,14,620.1,15.1z M619.2,15.1c0-0.9-0.2-1.6-0.7-2c-0.4-0.4-1.1-0.7-2-0.7h-1.1v5.4h1c0.9,0,1.6-0.2,2.1-0.7
		C619,16.7,619.2,16,619.2,15.1z"/>
	<path class="st1" d="M628.4,13.7c0,0.7-0.2,1.2-0.7,1.6s-1.1,0.6-2,0.6h-0.8v2.7h-0.8v-6.8h1.8C627.5,11.8,628.4,12.4,628.4,13.7z
		 M624.8,15.2h0.7c0.7,0,1.2-0.1,1.5-0.3c0.3-0.2,0.5-0.6,0.5-1.1c0-0.4-0.1-0.8-0.4-1c-0.3-0.2-0.8-0.3-1.4-0.3h-0.9V15.2z"/>
	<path class="st1" d="M634.1,18.5l-0.8-2.2h-2.7l-0.8,2.2h-0.8l2.7-6.8h0.7l2.7,6.8H634.1z M633,15.7l-0.8-2.1
		c-0.1-0.3-0.2-0.6-0.3-1c-0.1,0.3-0.2,0.6-0.3,1l-0.8,2.1H633z"/>
	<path class="st1" d="M636.6,15.7v2.8h-0.8v-6.8h1.9c0.8,0,1.4,0.2,1.8,0.5c0.4,0.3,0.6,0.8,0.6,1.4c0,0.9-0.5,1.5-1.4,1.8l1.8,3.1
		h-0.9l-1.6-2.8H636.6z M636.6,15h1.1c0.6,0,1-0.1,1.2-0.3c0.3-0.2,0.4-0.6,0.4-1c0-0.4-0.1-0.8-0.4-1c-0.3-0.2-0.7-0.3-1.3-0.3h-1
		V15z"/>
	<path class="st1" d="M643.8,18.5H643v-6.1h-2.1v-0.7h5.1v0.7h-2.1V18.5z"/>
	<path class="st1" d="M652.3,18.5h-0.9l-3.7-5.7h0c0,0.7,0.1,1.3,0.1,1.8v3.9h-0.7v-6.8h0.9l3.7,5.7h0c0-0.1,0-0.4,0-0.8
		c0-0.5,0-0.8,0-1v-3.9h0.7V18.5z"/>
	<path class="st1" d="M657.9,18.5h-3.8v-6.8h3.8v0.7h-3v2.2h2.8v0.7h-2.8v2.5h3V18.5z"/>
	<path class="st1" d="M660.2,15.7v2.8h-0.8v-6.8h1.9c0.8,0,1.4,0.2,1.8,0.5c0.4,0.3,0.6,0.8,0.6,1.4c0,0.9-0.5,1.5-1.4,1.8l1.8,3.1
		h-0.9l-1.6-2.8H660.2z M660.2,15h1.1c0.6,0,1-0.1,1.2-0.3c0.3-0.2,0.4-0.6,0.4-1c0-0.4-0.1-0.8-0.4-1c-0.3-0.2-0.7-0.3-1.3-0.3h-1
		V15z"/>
</g>
<g>
	<path class="st1" d="M0.9,15.1L0.9,15.1c0-7.9,5.8-15,14.5-15c8.7,0,14.5,7,14.5,14.8V15c0,7.9-5.8,14.9-14.5,14.9
		S0.9,22.9,0.9,15.1z M27.7,15.1L27.7,15.1C27.7,7.9,22.5,2,15.4,2S3.2,7.8,3.2,14.9V15c0,7.1,5.2,13,12.3,13
		C22.6,28,27.7,22.2,27.7,15.1z"/>
	<path class="st1" d="M36.8,17.4V0.6h2.1v16.6c0,6.8,3.7,10.7,9.8,10.7c5.8,0,9.6-3.5,9.6-10.5V0.6h2.1v16.6
		c0,8.3-4.8,12.7-11.8,12.7C41.7,29.9,36.8,25.5,36.8,17.4z"/>
	<path class="st1" d="M68.5,0.6h12.1c3.5,0,6.4,1.1,8.1,2.8c1.4,1.4,2.2,3.3,2.2,5.4v0.1c0,4.8-3.6,7.6-8.4,8.2L92,29.4h-2.7
		l-9.2-11.9h-9.4v11.9h-2.1V0.6z M80.4,15.5c4.8,0,8.4-2.4,8.4-6.6V8.9c0-3.9-3-6.3-8.3-6.3h-9.8v13H80.4z"/>
	<path class="st1" d="M110.6,0.6h2.1v26.9h16.9v2h-19.1V0.6z"/>
	<path class="st1" d="M136.4,0.6h2.1v28.8h-2.1V0.6z"/>
	<path class="st1" d="M147.4,0.6h20.3v2h-18.2v11.8h16.3v2h-16.3v13.1h-2.1V0.6z"/>
	<path class="st1" d="M174.4,0.6h20.5v2h-18.4v11.3h16.5v2h-16.5v11.6h18.6v2h-20.7V0.6z"/>
	<path class="st1" d="M212.3,15.1L212.3,15.1c0-8.3,6.2-15,15-15c5.4,0,8.7,1.8,11.4,4.4l-4,4.7c-2.2-2-4.5-3.3-7.4-3.3
		c-4.9,0-8.4,4-8.4,9V15c0,4.9,3.4,9.1,8.4,9.1c3.3,0,5.3-1.3,7.6-3.4l4,4.1c-3,3.2-6.3,5.1-11.8,5.1
		C218.6,29.9,212.3,23.4,212.3,15.1z"/>
	<path class="st1" d="M241.9,15.1L241.9,15.1c0-8.3,6.5-15,15.4-15c8.9,0,15.3,6.6,15.3,14.8V15c0,8.2-6.5,14.9-15.4,14.9
		S241.9,23.3,241.9,15.1z M265.9,15.1L265.9,15.1c0-5-3.6-9.1-8.7-9.1c-5.1,0-8.6,4-8.6,9V15c0,4.9,3.6,9.1,8.7,9.1
		C262.3,24.1,265.9,20,265.9,15.1z"/>
	<path class="st1" d="M273.8,0.6h7l7.5,20.3l7.5-20.3h6.8l-11.7,29h-5.6L273.8,0.6z"/>
	<path class="st1" d="M307.2,0.6h21.7v5.6h-15.4v5.8h13.6v5.6h-13.6v6.1h15.7v5.6h-22V0.6z"/>
	<path class="st1" d="M334.8,0.6h13.2c3.7,0,6.5,1,8.4,2.9c1.6,1.6,2.5,3.9,2.5,6.6v0.1c0,4.7-2.5,7.6-6.2,8.9l7,10.3h-7.4l-6.2-9.2
		h-5v9.2h-6.3V0.6z M347.5,14.6c3.1,0,4.9-1.6,4.9-4.1v-0.1c0-2.7-1.9-4.1-5-4.1h-6.3v8.3H347.5z"/>
	<path class="st1" d="M364.5,0.6h21.7v5.6h-15.4v5.8h13.6v5.6h-13.6v6.1h15.7v5.6h-22V0.6z"/>
	<path class="st1" d="M392.1,0.6h11.2c9.1,0,15.3,6.2,15.3,14.3V15c0,8.1-6.3,14.4-15.3,14.4h-11.2V0.6z M403.4,23.7
		c5.2,0,8.7-3.5,8.7-8.6V15c0-5.1-3.5-8.7-8.7-8.7h-4.9v17.4H403.4z"/>
	<path class="st1" d="M421.8,10.3l0.8-1c1.2,1.1,2.4,1.6,4,1.6c1.6,0,2.6-0.8,2.6-2v0c0-1.1-0.6-1.7-3-2.2c-2.7-0.6-3.9-1.4-3.9-3.4
		v0c0-1.8,1.6-3.2,3.8-3.2c1.7,0,2.9,0.5,4.1,1.4l-0.8,1c-1.1-0.9-2.2-1.3-3.4-1.3c-1.5,0-2.5,0.8-2.5,1.9v0c0,1.1,0.6,1.7,3.2,2.3
		c2.6,0.6,3.8,1.5,3.8,3.3v0c0,2-1.7,3.3-4,3.3C424.7,12.2,423.2,11.6,421.8,10.3z"/>
	<path class="st1" d="M433.2,0.4h1.3l4.2,6.4l4.2-6.4h1.3V12H443V2.6l-4.2,6.2h-0.1l-4.2-6.2V12h-1.3V0.4z"/>
</g>
</svg>
