<?xml version="1.0" encoding="utf-8"?>
<!-- Generator: Adobe Illustrator 21.0.1, SVG Export Plug-In . SVG Version: 6.00 Build 0)  -->
<svg version="1.1" id="Layer_1" xmlns="http://www.w3.org/2000/svg" xmlns:xlink="http://www.w3.org/1999/xlink" x="0px" y="0px"
	 viewBox="0 0 238 16.4" style="enable-background:new 0 0 238 16.4;" xml:space="preserve">
<style type="text/css">
	.st0{fill:#FFFFFF;}
</style>
<g>
	<path class="st0" d="M0.5,8.2L0.5,8.2c0-4.2,3.1-8,7.8-8C12.9,0.3,16,4,16,8.2l0,0c0,4.2-3.1,7.9-7.8,7.9
		C3.5,16.1,0.5,12.4,0.5,8.2z M14.8,8.2L14.8,8.2c0-3.8-2.8-7-6.6-7c-3.8,0-6.5,3.1-6.5,6.9l0,0c0,3.8,2.8,6.9,6.6,6.9
		C12,15.1,14.8,12,14.8,8.2z"/>
	<path class="st0" d="M19.8,9.5v-9H21v8.9c0,3.6,2,5.7,5.2,5.7c3.1,0,5.1-1.9,5.1-5.6v-9h1.1v8.8c0,4.4-2.6,6.8-6.3,6.8
		C22.4,16.1,19.8,13.8,19.8,9.5z"/>
	<path class="st0" d="M37,0.5h6.5c1.9,0,3.4,0.6,4.3,1.5C48.5,2.7,49,3.8,49,4.9l0,0c0,2.6-1.9,4-4.5,4.4l5.1,6.6H48l-4.9-6.4h-5
		v6.4H37V0.5z M43.3,8.5c2.6,0,4.5-1.3,4.5-3.5l0,0c0-2.1-1.6-3.4-4.4-3.4h-5.2v6.9H43.3z"/>
	<path class="st0" d="M60,0.5h1.1v14.3h9v1.1H60V0.5z"/>
	<path class="st0" d="M73.5,0.5h1.1v15.4h-1.1V0.5z"/>
	<path class="st0" d="M79.6,0.5h10.8v1.1h-9.7v6.3h8.7V9h-8.7v7h-1.1C79.6,16,79.6,0.5,79.6,0.5z"/>
	<path class="st0" d="M94.3,0.5h10.9v1.1h-9.8v6h8.8v1.1h-8.8v6.2h9.9V16h-11V0.5z"/>
	<path class="st0" d="M114.4,8.2L114.4,8.2c0-4.4,3.3-8,8-8c2.9,0,4.6,1,6.1,2.4l-2.2,2.5c-1.2-1.1-2.4-1.7-3.9-1.7
		c-2.6,0-4.5,2.2-4.5,4.8l0,0c0,2.6,1.8,4.8,4.5,4.8c1.8,0,2.8-0.7,4-1.8l2.2,2.2c-1.6,1.7-3.3,2.7-6.3,2.7
		C117.8,16.1,114.4,12.7,114.4,8.2z"/>
	<path class="st0" d="M130.3,8.2L130.3,8.2c0-4.4,3.4-8,8.2-8c4.7,0,8.1,3.5,8.1,7.9l0,0c0,4.4-3.4,7.9-8.2,7.9
		S130.3,12.6,130.3,8.2z M143.1,8.2L143.1,8.2c0-2.7-1.9-4.9-4.7-4.9c-2.7,0-4.6,2.2-4.6,4.8l0,0c0,2.6,1.9,4.8,4.7,4.8
		C141.2,13,143.1,10.9,143.1,8.2z"/>
	<path class="st0" d="M147.5,0.5h3.7l4,10.8l4-10.8h3.6L156.7,16h-3L147.5,0.5z"/>
	<path class="st0" d="M165.4,0.5H177v3h-8.2v3.1h7.2v3h-7.2v3.2h8.3v3h-11.7L165.4,0.5L165.4,0.5z"/>
	<path class="st0" d="M180.1,0.5h7c2,0,3.5,0.5,4.5,1.6c0.9,0.9,1.3,2.1,1.3,3.5l0,0c0,2.5-1.3,4-3.3,4.8l3.8,5.5h-4l-3.3-4.9h-2.7
		v4.9H180L180.1,0.5L180.1,0.5z M186.9,8c1.6,0,2.6-0.9,2.6-2.2l0,0c0-1.4-1-2.2-2.7-2.2h-3.4V8L186.9,8L186.9,8z"/>
	<path class="st0" d="M196.6,0.5h11.6v3H200v3.1h7.2v3H200v3.2h8.3v3h-11.7L196.6,0.5L196.6,0.5z"/>
	<path class="st0" d="M211.3,0.5h6c4.8,0,8.2,3.3,8.2,7.6l0,0c0,4.3-3.3,7.7-8.2,7.7h-6V0.5z M214.7,3.6v9.3h2.6
		c2.8,0,4.6-1.9,4.6-4.6l0,0c0-2.7-1.9-4.6-4.6-4.6L214.7,3.6L214.7,3.6z"/>
</g>
<g>
	<path class="st0" d="M228.1,5.4l0.3-0.4c0.5,0.5,1,0.7,1.7,0.7s1.1-0.4,1.1-0.8l0,0c0-0.5-0.2-0.7-1.3-0.9
		c-1.1-0.2-1.6-0.6-1.6-1.4l0,0c0-0.8,0.7-1.3,1.6-1.3c0.7,0,1.2,0.2,1.7,0.6l-0.3,0.4c-0.5-0.4-0.9-0.5-1.4-0.5c-0.6,0-1,0.4-1,0.8
		l0,0c0,0.5,0.3,0.7,1.3,1c1.1,0.2,1.6,0.6,1.6,1.4l0,0c0,0.8-0.7,1.4-1.7,1.4C229.3,6.2,228.7,5.9,228.1,5.4z"/>
	<path class="st0" d="M232.9,1.2h0.6l1.8,2.7l1.8-2.7h0.6v4.9h-0.6v-4l-1.8,2.6l0,0l-1.8-2.6v4H233V1.2H232.9z"/>
</g>
</svg>
