<?xml version="1.0" encoding="utf-8"?>
<!-- Generator: Adobe Illustrator 21.0.1, SVG Export Plug-In . SVG Version: 6.00 Build 0)  -->
<svg version="1.1" id="Layer_1" xmlns="http://www.w3.org/2000/svg" xmlns:xlink="http://www.w3.org/1999/xlink" x="0px" y="0px"
	 viewBox="0 0 238 53.9" style="enable-background:new 0 0 238 53.9;" xml:space="preserve">
<style type="text/css">
	.st0{opacity:0.18;enable-background:new    ;}
	.st1{fill:#FFFFFF;}
	.st2{font-family:'Arial-BoldMT';}
	.st3{font-size:2.4899px;}
</style>
<rect y="21.1" class="st0" width="238" height="32.8"/>
<g>
	<path class="st1" d="M36.9,38.1h-8.1c-0.1,1.4,0.2,2.6,0.9,3.6c0.8,1.1,1.8,1.6,3.2,1.6c1.2,0,2.4-0.6,3.4-2l0.8,0.6
		c-1.2,1.6-2.8,2.5-4.7,2.5c-1.7,0-3.2-0.6-4.3-1.7c-1.1-1.1-1.7-2.6-1.7-4.3s0.5-3.1,1.6-4.2c1-1.1,2.4-1.7,4.1-1.7
		c1.6,0,2.8,0.5,3.7,1.6C36.6,35.3,37,36.6,36.9,38.1 M28.9,37h5.6c0.1-1-0.1-1.7-0.5-2.4c-0.5-0.7-1.1-1.1-2.1-1.1
		s-1.6,0.4-2.2,1.1C29.2,35.2,29,36,28.9,37"/>
	<path class="st1" d="M42.9,41.5l2-4.6c0.5-1.2,0.8-2,0.8-2.3S45.5,34,45,33.9c-0.4-0.1-0.7-0.4-0.7-0.6v-0.4h4.5v0.4
		c0,0.3-0.1,0.4-0.2,0.5C48.2,33.9,48,34,47.9,34c-0.4,0.2-0.7,0.7-1,1.4l-3.8,8.8h-1.3l-4-9.1c-0.3-0.6-0.6-1-0.9-1.2
		c0,0-0.2-0.1-0.6-0.2c-0.2,0-0.2-0.2-0.2-0.5v-0.4h5.4v0.4c0,0.3-0.2,0.5-0.7,0.6c-0.4,0.1-0.7,0.3-0.7,0.6c0,0.1,0.1,0.4,0.3,0.9
		L42.9,41.5z"/>
	<path class="st1" d="M58.2,38.1h-8.1c-0.1,1.4,0.2,2.6,0.9,3.6c0.8,1.1,1.8,1.6,3.2,1.6c1.2,0,2.4-0.6,3.4-2l0.8,0.6
		c-1.2,1.6-2.8,2.5-4.7,2.5c-1.7,0-3.2-0.6-4.3-1.7c-1.1-1.1-1.7-2.6-1.7-4.3s0.5-3.1,1.6-4.2c1-1.1,2.4-1.7,4.1-1.7
		c1.6,0,2.8,0.5,3.7,1.6C57.9,35.3,58.3,36.6,58.2,38.1 M50.2,37h5.6c0.1-1-0.1-1.7-0.5-2.4c-0.5-0.7-1.1-1.1-2.1-1.1
		s-1.6,0.4-2.2,1.1C50.5,35.2,50.3,36,50.2,37"/>
	<path class="st1" d="M62.1,32.8v3.5c0.2-0.9,0.6-1.7,1.1-2.4c0.6-0.9,1.4-1.4,2.2-1.4c0.4,0,0.8,0.1,1.1,0.4c0.3,0.2,0.4,0.6,0.4,1
		s-0.1,0.6-0.4,0.9s-0.6,0.3-1,0.3c-0.2,0-0.5-0.1-0.7-0.2c-0.3-0.1-0.4-0.2-0.5-0.2c-0.6,0-1.1,0.7-1.5,2c-0.4,1.2-0.6,2.2-0.6,3.2
		v2.2c0,0.5,0.1,0.8,0.4,1c0.2,0,0.4,0,0.7,0.1c0.2,0,0.4,0.2,0.4,0.5v0.4h-5v-0.4c0-0.3,0.1-0.5,0.3-0.5s0.5-0.1,0.7-0.1
		c0.2-0.1,0.4-0.4,0.4-0.9V35c0-0.5-0.1-0.8-0.4-0.9c-0.2,0-0.4-0.1-0.7-0.1c-0.2,0-0.3-0.2-0.3-0.5v-0.4L62.1,32.8z"/>
	<path class="st1" d="M70.7,43.5v3.4c0,0.5,0.1,0.8,0.4,0.9c0.2,0,0.4,0.1,0.7,0.1c0.2,0,0.4,0.2,0.4,0.5v0.4h-4.9v-0.4
		c0-0.3,0.1-0.5,0.3-0.5c0.2-0.1,0.4-0.1,0.6-0.1c0.2-0.1,0.3-0.4,0.3-0.9v-12c0-0.6-0.2-0.9-0.6-1s-0.6-0.3-0.6-0.5v-0.5l3.3-0.1
		v1.1c1.1-0.9,2.2-1.4,3.4-1.4c1.6,0,2.9,0.6,3.9,1.7c1,1.1,1.4,2.5,1.4,4.2s-0.5,3.1-1.5,4.2c-1,1.2-2.4,1.8-4,1.8
		C72.7,44.5,71.6,44.2,70.7,43.5 M70.7,34.6v7.9c0.7,0.6,1.5,0.9,2.5,0.9c1.3,0,2.2-0.5,2.8-1.6c0.5-0.9,0.7-2,0.7-3.4
		c0-1.3-0.2-2.4-0.7-3.3c-0.6-1-1.6-1.5-2.8-1.5C72.2,33.6,71.4,33.9,70.7,34.6"/>
	<path class="st1" d="M83.5,26.1v16c0,0.5,0.1,0.8,0.3,0.9c0.2,0,0.4,0.1,0.6,0.1c0.2,0.1,0.3,0.2,0.3,0.5V44H80v-0.4
		c0-0.3,0.1-0.5,0.3-0.5c0.2-0.1,0.4-0.1,0.6-0.1c0.2-0.1,0.3-0.4,0.3-0.9V28.2c0-0.5-0.1-0.8-0.3-0.9c-0.2,0-0.4-0.1-0.6-0.1
		C80.1,27.1,80,27,80,26.7v-0.4L83.5,26.1z"/>
	<path class="st1" d="M92.1,37c0-2.4-0.8-3.6-2.3-3.6c-0.6,0-0.9,0.3-1,1c-0.1,0.9-0.5,1.3-1.3,1.3c-0.4,0-0.6-0.1-0.9-0.3
		c-0.2-0.2-0.4-0.5-0.4-0.8c0-0.6,0.5-1.2,1.3-1.6c0.7-0.3,1.5-0.4,2.2-0.4c2,0,3.3,0.7,4.1,2c0.4,0.7,0.6,1.5,0.6,2.5v3.7
		c0,1.7,0.4,2.5,1,2.5c0.2,0,0.4-0.1,0.6-0.3l0.1,0.1c0.1,0.2,0.2,0.3,0.2,0.4c0,0.2-0.2,0.5-0.6,0.7s-0.8,0.4-1.2,0.4
		c-1,0-1.8-0.5-2.2-1.6c-1,1.1-2.1,1.6-3.4,1.6c-1,0-2-0.3-2.7-0.9c-0.8-0.6-1.2-1.4-1.2-2.4C85.1,38.9,87.4,37.5,92.1,37
		 M92.2,40.2v-2.3c-1.2,0.1-2.2,0.4-3,0.9c-1,0.6-1.6,1.4-1.6,2.5c0,0.6,0.2,1.1,0.5,1.5s0.8,0.6,1.4,0.6s1.2-0.2,1.6-0.6
		C91.8,42.2,92.2,41.3,92.2,40.2"/>
	<path class="st1" d="M97.1,33.4v-0.5l3.3-0.1V34c1-1,2.3-1.4,3.6-1.4c2.5,0,3.7,1.1,3.7,3.2v6.4c0,0.5,0.1,0.8,0.3,0.9
		c0.2,0,0.4,0.1,0.6,0.1c0.2,0.1,0.3,0.2,0.3,0.5V44h-4.8v-0.4c0-0.3,0.1-0.5,0.3-0.5c0.2-0.1,0.4-0.1,0.6-0.1
		c0.2-0.1,0.3-0.4,0.3-0.9v-5.7c0-0.9-0.1-1.5-0.4-1.9c-0.4-0.5-1-0.8-2-0.8c-0.5,0-1,0.1-1.5,0.4c-0.5,0.3-0.9,0.6-1.1,1v7.1
		c0,0.5,0.1,0.8,0.3,0.9c0.2,0,0.4,0.1,0.6,0.1c0.2,0.1,0.3,0.2,0.3,0.5v0.4h-4.7v-0.4c0-0.3,0.2-0.5,0.6-0.6s0.6-0.4,0.6-1v-7.2
		c0-0.5-0.1-0.7-0.3-0.9c0,0-0.2-0.1-0.5-0.2C97.2,33.8,97.1,33.6,97.1,33.4"/>
	<path class="st1" d="M113.3,44.5c-0.9,0-1.8-0.2-2.6-0.5c-1.1-0.4-1.7-1-1.7-1.8c0-0.4,0.1-0.7,0.4-0.9s0.6-0.4,1-0.4
		c0.3,0,0.6,0.1,0.9,0.3s0.4,0.5,0.4,0.8c0,0.1,0,0.2,0,0.3s0,0.2,0,0.3c0,0.6,0.5,0.9,1.6,0.9c0.7,0,1.2-0.1,1.7-0.4
		c0.6-0.4,0.9-0.9,0.9-1.5c0-0.8-0.6-1.4-1.7-1.9c-1-0.4-2-0.8-3.1-1.2c-1.1-0.6-1.7-1.4-1.7-2.6c0-1.1,0.5-1.9,1.6-2.6
		c0.9-0.6,1.9-0.9,3.1-0.9c0.8,0,1.5,0.1,2.2,0.4c0.9,0.4,1.3,0.9,1.3,1.6c0,0.4-0.1,0.6-0.4,0.9c-0.3,0.2-0.6,0.3-0.9,0.3
		s-0.6-0.1-0.9-0.2c-0.3-0.2-0.4-0.4-0.4-0.8c0-0.1,0-0.1,0-0.2s0-0.2,0-0.2c0-0.4-0.4-0.6-1.2-0.6c-0.5,0-1,0.1-1.4,0.4
		c-0.5,0.3-0.7,0.7-0.7,1.2c0,0.7,0.6,1.3,1.7,1.8c1,0.4,2.1,0.8,3.1,1.2c1.1,0.6,1.7,1.5,1.7,2.6c0,1.2-0.5,2.1-1.6,2.8
		C115.6,44.2,114.5,44.5,113.3,44.5"/>
	<path class="st1" d="M22.2,38.3c0,4.8-3.8,8.6-8.6,8.6C8.9,46.9,5,43,5,38.3s3.8-8.6,8.6-8.6C18.3,29.8,22.2,33.6,22.2,38.3
		 M10.5,38.3c0-1-0.8-1.9-1.9-1.9s-1.9,0.8-1.9,1.9c0,1,0.8,1.9,1.9,1.9S10.5,39.4,10.5,38.3 M15.5,38.3c0-1-0.8-1.9-1.9-1.9
		s-1.9,0.8-1.9,1.9c0,1,0.8,1.9,1.9,1.9C14.6,40.2,15.5,39.4,15.5,38.3 M20.4,38.3c0-1-0.8-1.9-1.9-1.9c-1,0-1.9,0.8-1.9,1.9
		c0,1,0.8,1.9,1.9,1.9C19.5,40.2,20.4,39.4,20.4,38.3"/>
	<text transform="matrix(1 0 0 1 117.394 32.842)" class="st1 st2 st3">TM</text>
</g>
<g>
	<path class="st1" d="M134.2,36c0,0.8-0.3,1.3-0.8,1.8s-1.3,0.6-2.2,0.6h-0.9v2.9h-0.9v-7.5h1.9C133.2,33.8,134.2,34.5,134.2,36z
		 M130.3,37.6h0.8c0.8,0,1.3-0.1,1.7-0.4c0.3-0.2,0.5-0.6,0.5-1.2c0-0.5-0.2-0.9-0.5-1.1c-0.3-0.2-0.8-0.4-1.5-0.4h-1V37.6z"/>
	<path class="st1" d="M136.6,38.1v3.1h-0.9v-7.5h2.1c0.9,0,1.6,0.2,2,0.5c0.4,0.4,0.7,0.9,0.7,1.6c0,1-0.5,1.7-1.5,2l2,3.4h-1
		l-1.8-3.1H136.6z M136.6,37.4h1.2c0.6,0,1.1-0.1,1.4-0.4s0.4-0.6,0.4-1.1s-0.1-0.9-0.4-1.1s-0.8-0.3-1.4-0.3h-1.1L136.6,37.4
		L136.6,37.4z"/>
	<path class="st1" d="M146.4,41.3h-4.2v-7.5h4.2v0.8h-3.3V37h3.1v0.8h-3.1v2.8h3.3V41.3z"/>
	<path class="st1" d="M148.9,41.3H148v-7.5h4.2v0.8h-3.3v2.7h3.1v0.8h-3.1V41.3z"/>
	<path class="st1" d="M157.7,41.3h-4.2v-7.5h4.2v0.8h-3.3V37h3.1v0.8h-3.1v2.8h3.3V41.3z"/>
	<path class="st1" d="M160.2,38.1v3.1h-0.9v-7.5h2.1c0.9,0,1.6,0.2,2,0.5c0.4,0.4,0.7,0.9,0.7,1.6c0,1-0.5,1.7-1.5,2l2,3.4h-1
		l-1.8-3.1H160.2z M160.2,37.4h1.2c0.6,0,1.1-0.1,1.4-0.4s0.4-0.6,0.4-1.1s-0.1-0.9-0.4-1.1c-0.3-0.2-0.8-0.3-1.4-0.3h-1.1
		L160.2,37.4L160.2,37.4z"/>
	<path class="st1" d="M166.7,38.1v3.1h-0.9v-7.5h2.1c0.9,0,1.6,0.2,2,0.5c0.4,0.4,0.7,0.9,0.7,1.6c0,1-0.5,1.7-1.5,2l2,3.4h-1
		l-1.8-3.1H166.7z M166.7,37.4h1.2c0.6,0,1.1-0.1,1.4-0.4s0.4-0.6,0.4-1.1s-0.1-0.9-0.4-1.1s-0.8-0.3-1.4-0.3h-1.1L166.7,37.4
		L166.7,37.4z"/>
	<path class="st1" d="M176.5,41.3h-4.2v-7.5h4.2v0.8h-3.3V37h3.1v0.8h-3.1v2.8h3.3V41.3z"/>
	<path class="st1" d="M184.1,37.4c0,1.2-0.3,2.2-1,2.8c-0.7,0.7-1.6,1-2.9,1h-2.1v-7.5h2.3c1.2,0,2.1,0.3,2.7,1
		C183.8,35.4,184.1,36.3,184.1,37.4z M183.2,37.5c0-1-0.2-1.7-0.7-2.2s-1.2-0.7-2.2-0.7H179v6h1.1c1,0,1.8-0.3,2.3-0.8
		C182.9,39.2,183.2,38.5,183.2,37.5z"/>
	<path class="st1" d="M193.3,36c0,0.8-0.3,1.3-0.8,1.8s-1.3,0.6-2.2,0.6h-0.9v2.9h-0.9v-7.5h1.9C192.3,33.8,193.3,34.5,193.3,36z
		 M189.4,37.6h0.8c0.8,0,1.3-0.1,1.7-0.4c0.3-0.2,0.5-0.6,0.5-1.2c0-0.5-0.2-0.9-0.5-1.1c-0.3-0.2-0.8-0.4-1.5-0.4h-1V37.6z"/>
	<path class="st1" d="M199.6,41.3l-0.9-2.4h-3l-0.9,2.4h-0.9l3-7.5h0.7l2.9,7.5H199.6z M198.3,38.1l-0.9-2.3
		c-0.1-0.3-0.2-0.7-0.3-1.1c-0.1,0.3-0.2,0.7-0.3,1.1l-0.9,2.3H198.3z"/>
	<path class="st1" d="M202.4,38.1v3.1h-0.9v-7.5h2.1c0.9,0,1.6,0.2,2,0.5c0.4,0.4,0.7,0.9,0.7,1.6c0,1-0.5,1.7-1.5,2l2,3.4h-1
		l-1.8-3.1H202.4z M202.4,37.4h1.2c0.6,0,1.1-0.1,1.4-0.4s0.4-0.6,0.4-1.1s-0.1-0.9-0.4-1.1c-0.3-0.2-0.8-0.3-1.4-0.3h-1.1
		L202.4,37.4L202.4,37.4z"/>
	<path class="st1" d="M210.3,41.3h-0.9v-6.7H207v-0.8h5.6v0.8h-2.4L210.3,41.3L210.3,41.3z"/>
	<path class="st1" d="M219.6,41.3h-1l-4.1-6.3l0,0c0.1,0.7,0.1,1.4,0.1,2v4.3h-0.8v-7.5h1l4.1,6.3l0,0c0-0.1,0-0.4,0-0.9
		s0-0.9,0-1.1v-4.3h0.8v7.5H219.6z"/>
	<path class="st1" d="M225.9,41.3h-4.2v-7.5h4.2v0.8h-3.3V37h3.1v0.8h-3.1v2.8h3.3V41.3z"/>
	<path class="st1" d="M228.4,38.1v3.1h-0.9v-7.5h2.1c0.9,0,1.6,0.2,2,0.5c0.4,0.4,0.7,0.9,0.7,1.6c0,1-0.5,1.7-1.5,2l2,3.4h-1
		l-1.8-3.1H228.4z M228.4,37.4h1.2c0.6,0,1.1-0.1,1.4-0.4s0.4-0.6,0.4-1.1s-0.1-0.9-0.4-1.1s-0.8-0.3-1.4-0.3h-1.1L228.4,37.4
		L228.4,37.4z"/>
</g>
<g>
	<path class="st1" d="M0,8L0,8c0-4.3,3.1-8,7.8-8c4.7,0,7.8,3.7,7.8,8v0c0,4.2-3.1,8-7.8,8S0,12.3,0,8z M14.4,8L14.4,8
		c0-3.9-2.8-7-6.6-7S1.2,4.1,1.2,8v0c0,3.8,2.8,7,6.6,7C11.6,15,14.4,11.9,14.4,8z"/>
	<path class="st1" d="M19.2,9.3v-9h1.1v8.9c0,3.6,2,5.7,5.2,5.7c3.1,0,5.2-1.9,5.2-5.6v-9h1.1v8.9c0,4.4-2.6,6.8-6.3,6.8
		C21.9,16,19.2,13.6,19.2,9.3z"/>
	<path class="st1" d="M36.3,0.3h6.5c1.9,0,3.4,0.6,4.4,1.5c0.7,0.7,1.2,1.8,1.2,2.9v0c0,2.6-1.9,4.1-4.5,4.4l5.1,6.6h-1.5l-4.9-6.4
		h-5.1v6.4h-1.1V0.3z M42.6,8.3c2.6,0,4.5-1.3,4.5-3.5v0c0-2.1-1.6-3.4-4.4-3.4h-5.3v7H42.6z"/>
	<path class="st1" d="M58.9,0.3H60v14.4h9.1v1.1H58.9V0.3z"/>
	<path class="st1" d="M72.7,0.3h1.1v15.5h-1.1V0.3z"/>
	<path class="st1" d="M78.6,0.3h10.9v1.1h-9.7v6.3h8.8v1.1h-8.8v7h-1.1V0.3z"/>
	<path class="st1" d="M93.1,0.3h11v1.1h-9.9v6.1h8.9v1.1h-8.9v6.2h10v1.1H93.1V0.3z"/>
	<path class="st1" d="M113.5,8L113.5,8c0-4.4,3.3-8,8.1-8c2.9,0,4.7,1,6.1,2.4l-2.2,2.5c-1.2-1.1-2.4-1.7-4-1.7
		c-2.6,0-4.5,2.2-4.5,4.8v0c0,2.7,1.8,4.9,4.5,4.9c1.8,0,2.9-0.7,4.1-1.8l2.2,2.2c-1.6,1.7-3.4,2.8-6.3,2.8
		C116.8,16,113.5,12.5,113.5,8z"/>
	<path class="st1" d="M129.3,8L129.3,8c0-4.4,3.5-8,8.2-8c4.8,0,8.2,3.6,8.2,8v0c0,4.4-3.5,8-8.2,8C132.8,16,129.3,12.4,129.3,8z
		 M142.2,8L142.2,8c0-2.7-1.9-4.9-4.7-4.9c-2.7,0-4.6,2.2-4.6,4.8v0c0,2.7,1.9,4.9,4.7,4.9C140.3,12.9,142.2,10.7,142.2,8z"/>
	<path class="st1" d="M146.5,0.3h3.8l4,10.9l4-10.9h3.7l-6.3,15.6h-3L146.5,0.3z"/>
	<path class="st1" d="M164.4,0.3h11.7v3h-8.3v3.1h7.3v3h-7.3v3.2h8.4v3h-11.8V0.3z"/>
	<path class="st1" d="M179.2,0.3h7.1c2,0,3.5,0.6,4.5,1.6c0.9,0.9,1.3,2.1,1.3,3.5v0c0,2.5-1.3,4.1-3.3,4.8l3.8,5.5h-4l-3.3-5h-2.7
		v5h-3.4V0.3z M186.1,7.8c1.7,0,2.6-0.9,2.6-2.2v0c0-1.5-1-2.2-2.7-2.2h-3.4v4.4H186.1z"/>
	<path class="st1" d="M195.2,0.3h11.7v3h-8.3v3.1h7.3v3h-7.3v3.2h8.4v3h-11.8V0.3z"/>
	<path class="st1" d="M210,0.3h6c4.9,0,8.2,3.3,8.2,7.7v0c0,4.4-3.4,7.7-8.2,7.7h-6V0.3z M216,12.7c2.8,0,4.7-1.9,4.7-4.6v0
		c0-2.7-1.9-4.7-4.7-4.7h-2.6v9.3H216z"/>
	<path class="st1" d="M225.9,5.5l0.4-0.5c0.7,0.6,1.3,0.9,2.1,0.9c0.8,0,1.4-0.4,1.4-1.1v0c0-0.6-0.3-0.9-1.6-1.2
		c-1.4-0.3-2.1-0.8-2.1-1.8v0c0-1,0.9-1.7,2.1-1.7c0.9,0,1.6,0.3,2.2,0.8L230,1.4c-0.6-0.5-1.2-0.7-1.8-0.7c-0.8,0-1.3,0.4-1.3,1v0
		c0,0.6,0.3,0.9,1.7,1.2c1.4,0.3,2,0.8,2,1.8v0c0,1.1-0.9,1.8-2.1,1.8C227.5,6.5,226.6,6.2,225.9,5.5z"/>
	<path class="st1" d="M232,0.1h0.7l2.3,3.4l2.3-3.4h0.7v6.2h-0.7V1.3L235,4.7h0l-2.3-3.3v5.1H232V0.1z"/>
</g>
</svg>
